<svg width="14" height="12" viewBox="0 0 14 12" fill="none" xmlns="http://www.w3.org/2000/svg">
<path d="M9.35999 -0.00488281C8.39001 -0.00488281 7.45001 0.395142 6.77002 1.07513C6.09003 0.395142 5.15002 -0.00488281 4.17999 -0.00488281C2.15002 -0.00488281 0.5 1.65515 0.5 3.69513C0.5 3.97516 0.520019 4.26514 0.549988 4.54517C0.580017 4.80518 0.630005 5.05518 0.690002 5.29517C0.719971 5.41516 0.75 5.54517 0.789978 5.66516C0.799988 5.71515 0.820007 5.76514 0.830017 5.80518C0.869995 5.92517 0.909973 6.04517 0.960022 6.16516C1.01001 6.29517 1.07001 6.42517 1.13 6.55518C1.17999 6.66516 1.22998 6.77515 1.28998 6.88513C1.29999 6.90515 1.31 6.92517 1.32001 6.94513C1.32001 6.94513 1.32001 6.95514 1.33002 6.95514C1.34003 6.98517 1.35999 7.01514 1.38 7.03516C2.70001 9.44513 5.19 10.8151 6.26001 11.1851C6.34003 11.2151 6.41998 11.2252 6.5 11.2352C6.58002 11.2451 6.67999 11.2551 6.77002 11.2551C6.85999 11.2551 6.95001 11.2551 7.03998 11.2352C7.08002 11.2352 7.12 11.2252 7.15997 11.2151C7.20001 11.2151 7.23999 11.1951 7.28003 11.1851C8.34998 10.8151 10.85 9.44513 12.17 7.02515C12.17 7.02515 12.19 7.01514 12.19 7.00513C12.2 6.98517 12.22 6.96515 12.23 6.94513C12.27 6.86517 12.31 6.78516 12.35 6.69513C12.43 6.52515 12.51 6.34515 12.58 6.16516C12.63 6.04517 12.67 5.92517 12.71 5.80518C12.72 5.75513 12.74 5.70514 12.75 5.66516C12.79 5.54517 12.82 5.41516 12.85 5.29517C12.91 5.05518 12.96 4.80518 12.99 4.54517C13.02 4.27515 13.04 3.98517 13.04 3.69513C13.04 1.65515 11.39 -0.00488281 9.35999 -0.00488281ZM12.14 4.29517C12.12 4.45514 12.1 4.61517 12.07 4.77515C12.06 4.83514 12.05 4.89514 12.03 4.95514C12 5.12512 11.96 5.28516 11.91 5.43512C11.91 5.44513 11.91 5.45514 11.9 5.46515C11.84 5.65515 11.77 5.83514 11.7 6.01514C11.7 6.02515 11.7 6.03516 11.69 6.03516C11.57 6.31512 11.44 6.58514 11.29 6.83514C10.36 8.37512 8.90997 9.41516 7.84998 9.97516C7.53003 10.1351 7.26001 10.2651 7.03998 10.3351C7.02002 10.3452 7 10.3452 6.98999 10.3552C6.89001 10.3951 6.65997 10.3851 6.56 10.3552C6.53998 10.3452 6.52002 10.3452 6.5 10.3351C6.28998 10.2651 6.01001 10.1451 5.70001 9.97516C4.64001 9.42517 3.17999 8.37512 2.26001 6.82513C2.10999 6.57513 1.96997 6.31512 1.84998 6.03516C1.78998 5.90515 1.73999 5.77515 1.70001 5.63513C1.65002 5.49512 1.60999 5.35516 1.58002 5.20514C1.53003 5.06512 1.5 4.92517 1.47998 4.77515C1.45001 4.61517 1.41998 4.45514 1.40997 4.29517C1.39001 4.09515 1.38 3.89514 1.38 3.69513C1.38 3.49512 1.40002 3.31512 1.44 3.12512C1.46997 2.94513 1.53003 2.76514 1.59998 2.59515C2.03003 1.58514 3.02002 0.875122 4.17999 0.875122C5.06 0.875122 5.90002 1.29517 6.41998 2.00513C6.58002 2.22516 6.96002 2.22516 7.12 2.00513C7.65002 1.29517 8.48999 0.875122 9.35999 0.875122C10.91 0.875122 12.17 2.14514 12.17 3.69513C12.17 3.89514 12.16 4.09515 12.14 4.29517Z" fill="url(#paint0_linear_1649_207)"/>
<defs>
<linearGradient id="paint0_linear_1649_207" x1="0.5" y1="5.62512" x2="13.04" y2="5.62512" gradientUnits="userSpaceOnUse">
<stop stop-color="#522B79"/>
<stop offset="1" stop-color="#ED3284"/>
</linearGradient>
</defs>
</svg>
